<svg width="48" height="48" xmlns="http://www.w3.org/2000/svg">

 <g>
  <title>background</title>
  <rect fill="none" id="canvas_background" height="16" width="16" y="-1" x="-1"/>
 </g>
 <g>
  <title>Layer 1</title>
  <path id="svg_1" fill="none" d="m0,0l48,0l0,48l-48,0l0,-48z"/>
  <path fill="#32bfc9" transform="rotate(90.37096405029297 24,23.999999999999996) " id="svg_2" d="m42.82,23.16l-17.99,-17.99c-0.73,-0.72 -1.73,-1.17 -2.83,-1.17l-14,0c-2.21,0 -4,1.79 -4,4l0,14c0,1.11 0.45,2.11 1.18,2.83l18,18c0.72,0.72 1.72,1.17 2.82,1.17c1.1,0 2.11,-0.45 2.83,-1.17l14,-14c0.72,-0.73 1.17,-1.73 1.17,-2.83c0,-1.11 -0.45,-2.11 -1.18,-2.84zm-31.82,-9.16c-1.66,0 -3,-1.34 -3,-3s1.34,-3 3,-3s3,1.34 3,3s-1.34,3 -3,3z"/>
 </g>
</svg>